<?xml version="1.0" encoding="UTF-8" standalone="no"?>
<svg
   width="100%"
   height="100%"
   viewBox="0 0 500 500"
   version="1.1"
   xml:space="preserve"
   style="fill-rule:evenodd;clip-rule:evenodd;stroke-linejoin:round;stroke-miterlimit:2;"
   id="svg2"
   sodipodi:docname="icon.svg"
   inkscape:version="1.3.2 (091e20e, 2023-11-25, custom)"
   xmlns:inkscape="http://www.inkscape.org/namespaces/inkscape"
   xmlns:sodipodi="http://sodipodi.sourceforge.net/DTD/sodipodi-0.dtd"
   xmlns="http://www.w3.org/2000/svg"
   xmlns:svg="http://www.w3.org/2000/svg"><defs
   id="defs2" /><sodipodi:namedview
   id="namedview2"
   pagecolor="#ffffff"
   bordercolor="#000000"
   borderopacity="0.25"
   inkscape:showpageshadow="2"
   inkscape:pageopacity="0.0"
   inkscape:pagecheckerboard="0"
   inkscape:deskcolor="#d1d1d1"
   inkscape:zoom="1.162"
   inkscape:cx="249.56971"
   inkscape:cy="250"
   inkscape:window-width="1736"
   inkscape:window-height="777"
   inkscape:window-x="-8"
   inkscape:window-y="-8"
   inkscape:window-maximized="1"
   inkscape:current-layer="svg2" />
    <g
   transform="matrix(0.23921487,0,0,0.24671588,13.631205,6.6052988)"
   id="g1">
        <path
   d="M 966.597,1751.36 1212.66,367.49 c 234.54,0 308.52,25.719 319.2,130.696 0,0 157.34,-58.665 236.69,-177.812 -309.66,-143.492 -620.8,-149.963 -620.8,-149.963 L 966.188,391.544 966.597,391.517 785.04,170.376 c 0,0 -311.149,6.478 -620.772,149.97 79.285,119.147 236.684,177.812 236.684,177.812 10.744,-104.984 84.633,-130.702 317.6,-130.869 z"
   id="path1" />
    </g>
    <g
   transform="matrix(0.23387856,0,0,0.26221663,15.780796,8.8119768)"
   id="g2">
        <path
   d="m 984.89812,106.537 c 250.31998,-1.914 536.83998,38.724 830.14998,166.561 39.2,-70.56 49.28,-101.744 49.28,-101.744 C 1543.6981,44.501 1243.4281,1.089 984.86312,0 c -258.553,1.089 -558.806,44.508 -879.395,171.354 0,0 14.302,38.412 49.246,101.744 293.254,-127.837 579.822,-168.475 830.149,-166.561 z"
   id="path2" />
    </g>
<text
   xml:space="preserve"
   style="font-size:42.6152px;fill:#000000;stroke-width:3.55127"
   x="92.975533"
   y="543.83771"
   id="text2"
   transform="scale(1.1531041,0.8672244)"><tspan
     sodipodi:role="line"
     id="tspan2"
     x="92.975533"
     y="543.83771"
     style="stroke-width:3.55127">Tesla Logger</tspan></text></svg>
